<?xml version="1.0" encoding="utf-8"?>
<!-- Generator: Adobe Illustrator 16.0.3, SVG Export Plug-In . SVG Version: 6.00 Build 0)  -->
<!DOCTYPE svg PUBLIC "-//W3C//DTD SVG 1.1//EN" "http://www.w3.org/Graphics/SVG/1.1/DTD/svg11.dtd">
<svg version="1.1" id="Capa_1" xmlns="http://www.w3.org/2000/svg" xmlns:xlink="http://www.w3.org/1999/xlink" x="0px" y="0px"
	 width="50px" height="50px" viewBox="0 0 50 50" enable-background="new 0 0 50 50" xml:space="preserve">
<g>
	<path fill="#551A87" stroke="#551A87" stroke-miterlimit="10" d="M24.111,46.308C13.116,46.301,3.737,38.394,1.84,27.537
		C-0.217,15.759,7.276,4.379,18.905,1.617C31.04-1.266,43.304,6.233,46.173,18.375c1.494,6.324,0.387,12.25-3.117,17.722
		c-0.596,0.928-1.648,1.189-2.504,0.65c-0.877-0.561-1.088-1.619-0.469-2.578c2.164-3.345,3.238-6.999,3.17-10.987
		c-0.156-8.629-6.459-16.309-14.9-18.148c-9.669-2.107-19.17,3.26-22.33,12.613C2.597,27.785,8.411,38.954,18.702,41.957
		c5.268,1.534,10.295,0.905,15.071-1.791c1.002-0.566,1.854-0.514,2.471,0.157c0.787,0.853,0.59,2.144-0.459,2.771
		c-2.053,1.234-4.242,2.165-6.594,2.629c-1.67,0.329-3.373,0.492-5.061,0.729C24.124,46.404,24.118,46.355,24.111,46.308z"/>
	<path fill="#551A87" stroke="#551A87" stroke-miterlimit="10" d="M24.091,18.356c-2.612,0-5.225,0.005-7.836-0.003
		c-0.849-0.002-1.52-0.49-1.758-1.228c-0.231-0.716,0.024-1.587,0.688-1.967c0.372-0.211,0.848-0.329,1.278-0.331
		c3.634-0.025,7.267-0.013,10.899-0.013c1.436,0,2.869,0,4.305,0c1.404,0,2.221,0.658,2.211,1.784
		c-0.01,1.118-0.822,1.757-2.242,1.757C29.12,18.357,26.606,18.357,24.091,18.356z"/>
	<path fill="#551A87" stroke="#551A87" stroke-miterlimit="10" d="M24.157,25.434c-2.632,0-5.265,0.002-7.896-0.002
		c-0.726-0.002-1.3-0.3-1.635-0.956c-0.323-0.632-0.276-1.257,0.133-1.839c0.339-0.481,0.818-0.737,1.404-0.737
		c5.323-0.006,10.647-0.01,15.969,0.003c1.018,0.001,1.752,0.785,1.748,1.768c-0.006,0.995-0.77,1.754-1.826,1.758
		C29.421,25.443,26.79,25.432,24.157,25.434z"/>
	<path fill="#551A87" stroke="#551A87" stroke-miterlimit="10" d="M24.109,32.509c-2.592,0-5.186,0.004-7.778-0.001
		c-1.106,0-1.888-0.722-1.904-1.737c-0.018-1.039,0.771-1.798,1.902-1.798c5.225-0.007,10.449-0.007,15.672,0
		c1.104,0,1.887,0.755,1.877,1.761c-0.008,1.023-0.775,1.769-1.877,1.772c-2.631,0.015-5.264,0.005-7.894,0.005
		C24.109,32.511,24.109,32.511,24.109,32.509z"/>
</g>
</svg>
